G04*
G04 #@! TF.GenerationSoftware,Altium Limited,Altium Designer,19.1.8 (144)*
G04*
G04 Layer_Color=8388736*
%FSLAX44Y44*%
%MOMM*%
G71*
G01*
G75*
G04:AMPARAMS|DCode=12|XSize=1.2032mm|YSize=1.1032mm|CornerRadius=0.2141mm|HoleSize=0mm|Usage=FLASHONLY|Rotation=90.000|XOffset=0mm|YOffset=0mm|HoleType=Round|Shape=RoundedRectangle|*
%AMROUNDEDRECTD12*
21,1,1.2032,0.6750,0,0,90.0*
21,1,0.7750,1.1032,0,0,90.0*
1,1,0.4282,0.3375,0.3875*
1,1,0.4282,0.3375,-0.3875*
1,1,0.4282,-0.3375,-0.3875*
1,1,0.4282,-0.3375,0.3875*
%
%ADD12ROUNDEDRECTD12*%
%ADD13R,3.2032X4.2032*%
%ADD14R,1.2032X0.8632*%
G04:AMPARAMS|DCode=15|XSize=1.2032mm|YSize=0.8632mm|CornerRadius=0.2666mm|HoleSize=0mm|Usage=FLASHONLY|Rotation=180.000|XOffset=0mm|YOffset=0mm|HoleType=Round|Shape=RoundedRectangle|*
%AMROUNDEDRECTD15*
21,1,1.2032,0.3300,0,0,180.0*
21,1,0.6700,0.8632,0,0,180.0*
1,1,0.5332,-0.3350,0.1650*
1,1,0.5332,0.3350,0.1650*
1,1,0.5332,0.3350,-0.1650*
1,1,0.5332,-0.3350,-0.1650*
%
%ADD15ROUNDEDRECTD15*%
%ADD16C,1.5032*%
D12*
X104500Y16000D02*
D03*
X87500D02*
D03*
D13*
X188000Y23000D02*
D03*
D14*
X89300Y30000D02*
D03*
D15*
Y39500D02*
D03*
Y49000D02*
D03*
X63000Y30000D02*
D03*
Y49000D02*
D03*
D16*
X191200Y66600D02*
D03*
X165800D02*
D03*
X140400D02*
D03*
X115000Y92000D02*
D03*
Y66600D02*
D03*
X89600Y92000D02*
D03*
Y66600D02*
D03*
X64200Y92000D02*
D03*
X38800Y66600D02*
D03*
X13400Y92000D02*
D03*
X108000Y41000D02*
D03*
X120700Y15600D02*
D03*
X133400Y41000D02*
D03*
X146100Y15600D02*
D03*
X22000Y41000D02*
D03*
X34700Y15600D02*
D03*
X47400Y41000D02*
D03*
X60100Y15600D02*
D03*
M02*
